<svg id="Layer_1" viewBox="0 0 64 64" xmlns="http://www.w3.org/2000/svg" width="300" height="300" version="1.1" xmlns:xlink="http://www.w3.org/1999/xlink" xmlns:svgjs="http://svgjs.dev/svgjs"><g width="100%" height="100%" transform="matrix(1,0,0,1,0,0)"><circle cx="17" cy="37" r="3" fill="#521517" fill-opacity="1" data-original-color="#000000ff" stroke="none" stroke-opacity="1"/><path d="m11 46v6h2.17l1.83 10h4l1.83-10h2.17v-6c0-3.31-2.69-6-6-6s-6 2.69-6 6zm3.64-.77 1.66 1.38 2.96-3.28 1.49 1.34-3.6 4c-.2.22-.47.33-.74.33-.23 0-.45-.08-.64-.23l-2.4-2 1.28-1.54z" fill="#521517" fill-opacity="1" data-original-color="#000000ff" stroke="none" stroke-opacity="1"/><path d="m4 50h2v2h-2z" fill="#521517" fill-opacity="1" data-original-color="#000000ff" stroke="none" stroke-opacity="1"/><path d="m4 54h2v2h-2z" fill="#521517" fill-opacity="1" data-original-color="#000000ff" stroke="none" stroke-opacity="1"/><path d="m6 52h2v2h-2z" fill="#521517" fill-opacity="1" data-original-color="#000000ff" stroke="none" stroke-opacity="1"/><path d="m2 52h2v2h-2z" fill="#521517" fill-opacity="1" data-original-color="#000000ff" stroke="none" stroke-opacity="1"/><path d="m5 35h2v2h-2z" fill="#521517" fill-opacity="1" data-original-color="#000000ff" stroke="none" stroke-opacity="1"/><path d="m5 39h2v2h-2z" fill="#521517" fill-opacity="1" data-original-color="#000000ff" stroke="none" stroke-opacity="1"/><path d="m7 37h2v2h-2z" fill="#521517" fill-opacity="1" data-original-color="#000000ff" stroke="none" stroke-opacity="1"/><path d="m3 37h2v2h-2z" fill="#521517" fill-opacity="1" data-original-color="#000000ff" stroke="none" stroke-opacity="1"/><path d="m28 40h2v2h-2z" fill="#521517" fill-opacity="1" data-original-color="#000000ff" stroke="none" stroke-opacity="1"/><path d="m28 44h2v2h-2z" fill="#521517" fill-opacity="1" data-original-color="#000000ff" stroke="none" stroke-opacity="1"/><path d="m30 42h2v2h-2z" fill="#521517" fill-opacity="1" data-original-color="#000000ff" stroke="none" stroke-opacity="1"/><path d="m26 42h2v2h-2z" fill="#521517" fill-opacity="1" data-original-color="#000000ff" stroke="none" stroke-opacity="1"/><path d="m22 60h2v2h-2z" fill="#521517" fill-opacity="1" data-original-color="#000000ff" stroke="none" stroke-opacity="1"/><path d="m52 42h-13c-1.65 0-3-1.35-3-3v-8c0-2.76-2.24-5-5-5h-21c-3.31 0-6-2.69-6-6s2.69-6 6-6h24v-2h-24c-4.41 0-8 3.59-8 8s3.59 8 8 8h21c1.65 0 3 1.35 3 3v8c0 2.76 2.24 5 5 5h13c4.41 0 8 3.59 8 8s-3.59 8-8 8h-26v2h26c5.51 0 10-4.49 10-10s-4.49-10-10-10z" fill="#521517" fill-opacity="1" data-original-color="#000000ff" stroke="none" stroke-opacity="1"/><path d="m36 12h2v2h-2z" fill="#521517" fill-opacity="1" data-original-color="#000000ff" stroke="none" stroke-opacity="1"/><path d="m52 4.06v-2.06h-2v2.06c-4.16.46-7.48 3.78-7.94 7.94h-2.06v2h2.06c.46 4.16 3.78 7.48 7.94 7.94v2.06h2v-2.06c4.16-.46 7.48-3.78 7.94-7.94h2.06v-2h-2.06c-.46-4.16-3.78-7.48-7.94-7.94zm5.92 9.94c-.44 3.06-2.86 5.48-5.92 5.92v-1.92h-2v1.92c-3.06-.44-5.48-2.86-5.92-5.92h1.92v-2h-1.92c.44-3.06 2.86-5.48 5.92-5.92v1.92h2v-1.92c3.06.44 5.48 2.86 5.92 5.92h-1.92v2z" fill="#521517" fill-opacity="1" data-original-color="#000000ff" stroke="none" stroke-opacity="1"/><circle cx="51" cy="13" r="4" fill="#521517" fill-opacity="1" data-original-color="#000000ff" stroke="none" stroke-opacity="1"/></g></svg>